<?xml version="1.0" encoding="utf-8"?><svg version="1.1" id="Layer_1" xmlns="http://www.w3.org/2000/svg" xmlns:xlink="http://www.w3.org/1999/xlink" x="0px" y="0px" viewBox="0 0 122.88 106.78" style="enable-background:new 0 0 122.88 106.78" xml:space="preserve"><style type="text/css"><![CDATA[
	.st0{fill-rule:evenodd;clip-rule:evenodd;}
]]></style><g><path class="st0" d="M92.32,55.21c-1.17-0.02-2.33-0.09-3.5-0.21c-2.22-0.23-4.17-1.79-6.17-1.85c-3.6-0.11-7.01,1.43-11.15,1.59 c-2.74,0.13-5.27-0.61-7.54-2.53c-11.84-1.91-21.6-1.89-29.33,0c-1.14-6.07-3.94-10.53-6.81-11.83c1.73,4.37,3.01,8.29,2.35,11.71 c-3.45-0.87-6.46,0.3-8.72,4.96c-3.78,1.57-4.61,12.48-4.57,26.1c0.96,1.84,1.52,3.94,1.75,6.26c0.27,2.67,0.1,5.63-0.41,8.81 c-1.58,1.13-1.75,5.7-2.62,8.56h-3.03l-2.42-22.01L6.1,76.69C1.1,67.03,0,58.84,3.68,52.48c-2.3-1.84-3.56-3.93-3.67-6.29 c-0.22-5.05,4.41-9.62,8.28-12.27c2.32-1.59,7.31-2.16,6.96-4.58c-1.98,0.2-3.61-0.12-4.7-1.24c-5.24-5.37,5.04-7.66,8.78-8.05 c6.63-0.69,13.81,0.97,23.39,0.97c-3.96-2.92-9.75-4.5-14.77-4.36c3.88-3.85,9.88-6.69,16.1-8.28c-1.27-0.7-5.07-1-9.93-0.37 c7.76-4.71,13.15-3.05,24.16,0.63L51.58,0c3.7,1.66,7.16,3.04,10.41,4.17c12.34,4.3,26.67,2.59,38.13,5.55 c19.03,4.91,29.22,31.12,8.45,41.8C103.43,54.17,98.07,55.3,92.32,55.21L92.32,55.21z M108.31,57.45c-0.59-0.7-0.79-1.43-0.61-1.81 c6.7-2.73,11.43-0.9,13.97,6.01c2.85,6.88-0.01,7.67-1.55,12.35c-1.76,5.33,0.11,11.7-1.37,18.54c-1.2,5.51-0.98,8.58-0.98,14.23 c-1.26-1.85-2-7.28-2.6-13.6c-0.05-6.97,0.27-12.25-1.53-19.08c-0.7-2.65-1.6-4.42-2.16-6.4 C110.03,62.64,111.35,61.03,108.31,57.45L108.31,57.45z"/></g></svg>
